<mxfile host="app.diagrams.net" modified="2024-02-05T18:15:03.878Z" agent="Mozilla/5.0 (Windows NT 10.0; Win64; x64) AppleWebKit/537.36 (KHTML, like Gecko) Chrome/121.0.0.0 Safari/537.36" etag="KYPdQJkgzdAgnr77wA1N" version="23.1.1" type="device">
  <diagram name="Page-1" id="_OZlK7uiwpZgr_RB2BxG">
    <mxGraphModel dx="1222" dy="686" grid="1" gridSize="10" guides="1" tooltips="1" connect="1" arrows="1" fold="1" page="1" pageScale="1" pageWidth="850" pageHeight="1100" math="0" shadow="0">
      <root>
        <mxCell id="0" />
        <mxCell id="1" parent="0" />
        <mxCell id="NwhCCyq9oSYM_DOy5on5-4" value="Home Owner" style="shape=umlActor;verticalLabelPosition=bottom;verticalAlign=top;html=1;outlineConnect=0;" vertex="1" parent="1">
          <mxGeometry x="207.5" y="50" width="30" height="60" as="geometry" />
        </mxCell>
        <mxCell id="NwhCCyq9oSYM_DOy5on5-5" value="Food waste management app" style="rounded=1;whiteSpace=wrap;html=1;" vertex="1" parent="1">
          <mxGeometry x="520" y="80" width="90" height="50" as="geometry" />
        </mxCell>
        <mxCell id="NwhCCyq9oSYM_DOy5on5-6" value="" style="endArrow=none;dashed=1;html=1;rounded=0;" edge="1" parent="1">
          <mxGeometry width="50" height="50" relative="1" as="geometry">
            <mxPoint x="222" y="240" as="sourcePoint" />
            <mxPoint x="222" y="140" as="targetPoint" />
          </mxGeometry>
        </mxCell>
        <mxCell id="NwhCCyq9oSYM_DOy5on5-7" value="" style="endArrow=none;dashed=1;html=1;rounded=0;" edge="1" parent="1">
          <mxGeometry width="50" height="50" relative="1" as="geometry">
            <mxPoint x="560" y="240" as="sourcePoint" />
            <mxPoint x="560" y="130" as="targetPoint" />
          </mxGeometry>
        </mxCell>
        <mxCell id="NwhCCyq9oSYM_DOy5on5-10" value="scanDetails(barcode, date)" style="text;html=1;strokeColor=none;fillColor=none;align=center;verticalAlign=middle;whiteSpace=wrap;rounded=0;" vertex="1" parent="1">
          <mxGeometry x="315" y="130" width="150" height="20" as="geometry" />
        </mxCell>
        <mxCell id="NwhCCyq9oSYM_DOy5on5-23" value="" style="endArrow=classic;html=1;rounded=0;dashed=1;dashPattern=8 8;" edge="1" parent="1">
          <mxGeometry width="50" height="50" relative="1" as="geometry">
            <mxPoint x="560" y="200" as="sourcePoint" />
            <mxPoint x="220" y="200" as="targetPoint" />
          </mxGeometry>
        </mxCell>
        <mxCell id="NwhCCyq9oSYM_DOy5on5-24" value="details and identified item" style="text;html=1;strokeColor=none;fillColor=none;align=center;verticalAlign=middle;whiteSpace=wrap;rounded=0;" vertex="1" parent="1">
          <mxGeometry x="305" y="170" width="170" height="20" as="geometry" />
        </mxCell>
        <mxCell id="NwhCCyq9oSYM_DOy5on5-32" value="" style="endArrow=classic;html=1;rounded=0;" edge="1" parent="1">
          <mxGeometry width="50" height="50" relative="1" as="geometry">
            <mxPoint x="220" y="160" as="sourcePoint" />
            <mxPoint x="560" y="160" as="targetPoint" />
          </mxGeometry>
        </mxCell>
        <mxCell id="NwhCCyq9oSYM_DOy5on5-35" value="scan barcode" style="text;html=1;strokeColor=none;fillColor=none;align=center;verticalAlign=middle;whiteSpace=wrap;rounded=0;" vertex="1" parent="1">
          <mxGeometry x="165" y="20" width="115" height="20" as="geometry" />
        </mxCell>
        <mxCell id="NwhCCyq9oSYM_DOy5on5-36" value="expiry date is entered&amp;nbsp;&amp;nbsp;" style="text;html=1;strokeColor=none;fillColor=none;align=center;verticalAlign=middle;whiteSpace=wrap;rounded=0;" vertex="1" parent="1">
          <mxGeometry x="120" y="300" width="220" height="30" as="geometry" />
        </mxCell>
        <mxCell id="NwhCCyq9oSYM_DOy5on5-49" value="Home Owner" style="shape=umlActor;verticalLabelPosition=bottom;verticalAlign=top;html=1;outlineConnect=0;" vertex="1" parent="1">
          <mxGeometry x="200" y="360" width="30" height="60" as="geometry" />
        </mxCell>
        <mxCell id="NwhCCyq9oSYM_DOy5on5-50" value="Food waste management app" style="rounded=1;whiteSpace=wrap;html=1;" vertex="1" parent="1">
          <mxGeometry x="520" y="390" width="90" height="50" as="geometry" />
        </mxCell>
        <mxCell id="NwhCCyq9oSYM_DOy5on5-51" value="" style="endArrow=none;dashed=1;html=1;rounded=0;" edge="1" parent="1">
          <mxGeometry width="50" height="50" relative="1" as="geometry">
            <mxPoint x="220" y="560" as="sourcePoint" />
            <mxPoint x="220" y="450" as="targetPoint" />
          </mxGeometry>
        </mxCell>
        <mxCell id="NwhCCyq9oSYM_DOy5on5-52" value="" style="endArrow=none;dashed=1;html=1;rounded=0;" edge="1" parent="1">
          <mxGeometry width="50" height="50" relative="1" as="geometry">
            <mxPoint x="560" y="560" as="sourcePoint" />
            <mxPoint x="560" y="440" as="targetPoint" />
          </mxGeometry>
        </mxCell>
        <mxCell id="NwhCCyq9oSYM_DOy5on5-53" value="EnterExpiryDate(date)" style="text;html=1;strokeColor=none;fillColor=none;align=center;verticalAlign=middle;whiteSpace=wrap;rounded=0;" vertex="1" parent="1">
          <mxGeometry x="350" y="450" width="60" height="20" as="geometry" />
        </mxCell>
        <mxCell id="NwhCCyq9oSYM_DOy5on5-54" value="" style="endArrow=classic;html=1;rounded=0;dashed=1;dashPattern=8 8;" edge="1" parent="1">
          <mxGeometry width="50" height="50" relative="1" as="geometry">
            <mxPoint x="560" y="520" as="sourcePoint" />
            <mxPoint x="220" y="520" as="targetPoint" />
          </mxGeometry>
        </mxCell>
        <mxCell id="NwhCCyq9oSYM_DOy5on5-58" value="" style="endArrow=classic;html=1;rounded=0;" edge="1" parent="1">
          <mxGeometry width="50" height="50" relative="1" as="geometry">
            <mxPoint x="220" y="480" as="sourcePoint" />
            <mxPoint x="560" y="480" as="targetPoint" />
          </mxGeometry>
        </mxCell>
        <mxCell id="NwhCCyq9oSYM_DOy5on5-62" value="date display&amp;nbsp;" style="text;html=1;strokeColor=none;fillColor=none;align=center;verticalAlign=middle;whiteSpace=wrap;rounded=0;" vertex="1" parent="1">
          <mxGeometry x="310" y="490" width="130" height="20" as="geometry" />
        </mxCell>
        <mxCell id="NwhCCyq9oSYM_DOy5on5-63" value="Earn badge" style="text;html=1;strokeColor=none;fillColor=none;align=center;verticalAlign=middle;whiteSpace=wrap;rounded=0;" vertex="1" parent="1">
          <mxGeometry x="180" y="590" width="110" height="30" as="geometry" />
        </mxCell>
        <mxCell id="NwhCCyq9oSYM_DOy5on5-64" value="Home Owner" style="shape=umlActor;verticalLabelPosition=bottom;verticalAlign=top;html=1;outlineConnect=0;" vertex="1" parent="1">
          <mxGeometry x="200" y="640" width="30" height="60" as="geometry" />
        </mxCell>
        <mxCell id="NwhCCyq9oSYM_DOy5on5-65" value="Food waste management app" style="rounded=1;whiteSpace=wrap;html=1;" vertex="1" parent="1">
          <mxGeometry x="520" y="670" width="90" height="50" as="geometry" />
        </mxCell>
        <mxCell id="NwhCCyq9oSYM_DOy5on5-66" value="" style="endArrow=none;dashed=1;html=1;rounded=0;" edge="1" parent="1">
          <mxGeometry width="50" height="50" relative="1" as="geometry">
            <mxPoint x="220" y="840" as="sourcePoint" />
            <mxPoint x="220" y="730" as="targetPoint" />
          </mxGeometry>
        </mxCell>
        <mxCell id="NwhCCyq9oSYM_DOy5on5-67" value="" style="endArrow=none;dashed=1;html=1;rounded=0;" edge="1" parent="1">
          <mxGeometry width="50" height="50" relative="1" as="geometry">
            <mxPoint x="560" y="840" as="sourcePoint" />
            <mxPoint x="560" y="720" as="targetPoint" />
          </mxGeometry>
        </mxCell>
        <mxCell id="NwhCCyq9oSYM_DOy5on5-68" value="EarnBadge()" style="text;html=1;strokeColor=none;fillColor=none;align=center;verticalAlign=middle;whiteSpace=wrap;rounded=0;" vertex="1" parent="1">
          <mxGeometry x="350" y="730" width="60" height="20" as="geometry" />
        </mxCell>
        <mxCell id="NwhCCyq9oSYM_DOy5on5-69" value="" style="endArrow=classic;html=1;rounded=0;dashed=1;dashPattern=8 8;" edge="1" parent="1">
          <mxGeometry width="50" height="50" relative="1" as="geometry">
            <mxPoint x="560" y="800" as="sourcePoint" />
            <mxPoint x="220" y="800" as="targetPoint" />
          </mxGeometry>
        </mxCell>
        <mxCell id="NwhCCyq9oSYM_DOy5on5-70" value="" style="endArrow=classic;html=1;rounded=0;" edge="1" parent="1">
          <mxGeometry width="50" height="50" relative="1" as="geometry">
            <mxPoint x="220" y="760" as="sourcePoint" />
            <mxPoint x="560" y="760" as="targetPoint" />
          </mxGeometry>
        </mxCell>
        <mxCell id="NwhCCyq9oSYM_DOy5on5-71" value="badge display" style="text;html=1;strokeColor=none;fillColor=none;align=center;verticalAlign=middle;whiteSpace=wrap;rounded=0;" vertex="1" parent="1">
          <mxGeometry x="310" y="770" width="130" height="20" as="geometry" />
        </mxCell>
        <mxCell id="NwhCCyq9oSYM_DOy5on5-80" value="modify pre expiry date period" style="text;html=1;strokeColor=none;fillColor=none;align=center;verticalAlign=middle;whiteSpace=wrap;rounded=0;" vertex="1" parent="1">
          <mxGeometry x="165" y="880" width="175" height="30" as="geometry" />
        </mxCell>
        <mxCell id="NwhCCyq9oSYM_DOy5on5-81" value="Home Owner" style="shape=umlActor;verticalLabelPosition=bottom;verticalAlign=top;html=1;outlineConnect=0;" vertex="1" parent="1">
          <mxGeometry x="200" y="930" width="30" height="60" as="geometry" />
        </mxCell>
        <mxCell id="NwhCCyq9oSYM_DOy5on5-82" value="Food waste management app" style="rounded=1;whiteSpace=wrap;html=1;" vertex="1" parent="1">
          <mxGeometry x="520" y="960" width="90" height="50" as="geometry" />
        </mxCell>
        <mxCell id="NwhCCyq9oSYM_DOy5on5-83" value="" style="endArrow=none;dashed=1;html=1;rounded=0;" edge="1" parent="1">
          <mxGeometry width="50" height="50" relative="1" as="geometry">
            <mxPoint x="220" y="1130" as="sourcePoint" />
            <mxPoint x="220" y="1020" as="targetPoint" />
          </mxGeometry>
        </mxCell>
        <mxCell id="NwhCCyq9oSYM_DOy5on5-84" value="" style="endArrow=none;dashed=1;html=1;rounded=0;" edge="1" parent="1">
          <mxGeometry width="50" height="50" relative="1" as="geometry">
            <mxPoint x="560" y="1130" as="sourcePoint" />
            <mxPoint x="560" y="1010" as="targetPoint" />
          </mxGeometry>
        </mxCell>
        <mxCell id="NwhCCyq9oSYM_DOy5on5-85" value="NotifyExpiryDate()" style="text;html=1;strokeColor=none;fillColor=none;align=center;verticalAlign=middle;whiteSpace=wrap;rounded=0;" vertex="1" parent="1">
          <mxGeometry x="360" y="1020" width="60" height="20" as="geometry" />
        </mxCell>
        <mxCell id="NwhCCyq9oSYM_DOy5on5-86" value="" style="endArrow=classic;html=1;rounded=0;dashed=1;dashPattern=8 8;" edge="1" parent="1">
          <mxGeometry width="50" height="50" relative="1" as="geometry">
            <mxPoint x="560" y="1090" as="sourcePoint" />
            <mxPoint x="220" y="1090" as="targetPoint" />
          </mxGeometry>
        </mxCell>
        <mxCell id="NwhCCyq9oSYM_DOy5on5-87" value="" style="endArrow=classic;html=1;rounded=0;" edge="1" parent="1">
          <mxGeometry width="50" height="50" relative="1" as="geometry">
            <mxPoint x="220" y="1050" as="sourcePoint" />
            <mxPoint x="560" y="1050" as="targetPoint" />
          </mxGeometry>
        </mxCell>
        <mxCell id="NwhCCyq9oSYM_DOy5on5-88" value="user notification" style="text;html=1;strokeColor=none;fillColor=none;align=center;verticalAlign=middle;whiteSpace=wrap;rounded=0;" vertex="1" parent="1">
          <mxGeometry x="325" y="1060" width="130" height="20" as="geometry" />
        </mxCell>
        <mxCell id="NwhCCyq9oSYM_DOy5on5-124" value="The homeowner scans the barcode of the item and then the system identifies the item, sending details about the item.&amp;nbsp;" style="shape=note;size=23;whiteSpace=wrap;html=1;" vertex="1" parent="1">
          <mxGeometry x="620" y="160" width="190" height="80" as="geometry" />
        </mxCell>
        <mxCell id="NwhCCyq9oSYM_DOy5on5-125" value="The homeowner enters the expiry date and the system then displays the date&amp;nbsp;&amp;nbsp;" style="shape=note;size=23;whiteSpace=wrap;html=1;" vertex="1" parent="1">
          <mxGeometry x="620" y="470" width="170" height="85" as="geometry" />
        </mxCell>
        <mxCell id="NwhCCyq9oSYM_DOy5on5-127" value="When earn badge is initiated by the user it is shown the badge they have earned" style="shape=note;size=23;whiteSpace=wrap;html=1;" vertex="1" parent="1">
          <mxGeometry x="630" y="720" width="180" height="100" as="geometry" />
        </mxCell>
        <mxCell id="NwhCCyq9oSYM_DOy5on5-129" value="The user is send notification on the pre-expiry period.&amp;nbsp;" style="shape=note;size=23;whiteSpace=wrap;html=1;" vertex="1" parent="1">
          <mxGeometry x="625" y="1020" width="155" height="80" as="geometry" />
        </mxCell>
        <mxCell id="NwhCCyq9oSYM_DOy5on5-132" style="edgeStyle=orthogonalEdgeStyle;rounded=0;orthogonalLoop=1;jettySize=auto;html=1;exitX=0.5;exitY=1;exitDx=0;exitDy=0;" edge="1" parent="1" source="NwhCCyq9oSYM_DOy5on5-10" target="NwhCCyq9oSYM_DOy5on5-10">
          <mxGeometry relative="1" as="geometry" />
        </mxCell>
        <mxCell id="NwhCCyq9oSYM_DOy5on5-147" value="giving donations makes them earn points and badges&amp;nbsp;" style="text;html=1;strokeColor=none;fillColor=none;align=center;verticalAlign=middle;whiteSpace=wrap;rounded=0;" vertex="1" parent="1">
          <mxGeometry x="170" y="1240" width="305" height="30" as="geometry" />
        </mxCell>
        <mxCell id="NwhCCyq9oSYM_DOy5on5-148" value="Home Owner" style="shape=umlActor;verticalLabelPosition=bottom;verticalAlign=top;html=1;outlineConnect=0;" vertex="1" parent="1">
          <mxGeometry x="195" y="1290" width="30" height="60" as="geometry" />
        </mxCell>
        <mxCell id="NwhCCyq9oSYM_DOy5on5-149" value="Food waste management app" style="rounded=1;whiteSpace=wrap;html=1;" vertex="1" parent="1">
          <mxGeometry x="515" y="1320" width="90" height="50" as="geometry" />
        </mxCell>
        <mxCell id="NwhCCyq9oSYM_DOy5on5-150" value="" style="endArrow=none;dashed=1;html=1;rounded=0;" edge="1" parent="1">
          <mxGeometry width="50" height="50" relative="1" as="geometry">
            <mxPoint x="215" y="1490" as="sourcePoint" />
            <mxPoint x="215" y="1380" as="targetPoint" />
          </mxGeometry>
        </mxCell>
        <mxCell id="NwhCCyq9oSYM_DOy5on5-151" value="" style="endArrow=none;dashed=1;html=1;rounded=0;" edge="1" parent="1">
          <mxGeometry width="50" height="50" relative="1" as="geometry">
            <mxPoint x="555" y="1490" as="sourcePoint" />
            <mxPoint x="555" y="1370" as="targetPoint" />
          </mxGeometry>
        </mxCell>
        <mxCell id="NwhCCyq9oSYM_DOy5on5-152" value="give_donations(food waste)" style="text;html=1;strokeColor=none;fillColor=none;align=center;verticalAlign=middle;whiteSpace=wrap;rounded=0;" vertex="1" parent="1">
          <mxGeometry x="310" y="1380" width="150" height="20" as="geometry" />
        </mxCell>
        <mxCell id="NwhCCyq9oSYM_DOy5on5-153" value="" style="endArrow=classic;html=1;rounded=0;dashed=1;dashPattern=8 8;" edge="1" parent="1">
          <mxGeometry width="50" height="50" relative="1" as="geometry">
            <mxPoint x="555" y="1450" as="sourcePoint" />
            <mxPoint x="215" y="1450" as="targetPoint" />
          </mxGeometry>
        </mxCell>
        <mxCell id="NwhCCyq9oSYM_DOy5on5-154" value="" style="endArrow=classic;html=1;rounded=0;" edge="1" parent="1">
          <mxGeometry width="50" height="50" relative="1" as="geometry">
            <mxPoint x="215" y="1410" as="sourcePoint" />
            <mxPoint x="555" y="1410" as="targetPoint" />
          </mxGeometry>
        </mxCell>
        <mxCell id="NwhCCyq9oSYM_DOy5on5-155" value="donation confirmed&amp;nbsp;" style="text;html=1;strokeColor=none;fillColor=none;align=center;verticalAlign=middle;whiteSpace=wrap;rounded=0;" vertex="1" parent="1">
          <mxGeometry x="285" y="1420" width="180" height="20" as="geometry" />
        </mxCell>
        <mxCell id="NwhCCyq9oSYM_DOy5on5-156" value="The home owner gives donation which is then confirmed by the user" style="shape=note;size=23;whiteSpace=wrap;html=1;" vertex="1" parent="1">
          <mxGeometry x="630" y="1390" width="170" height="90" as="geometry" />
        </mxCell>
        <mxCell id="NwhCCyq9oSYM_DOy5on5-157" style="edgeStyle=orthogonalEdgeStyle;rounded=0;orthogonalLoop=1;jettySize=auto;html=1;exitX=0.5;exitY=1;exitDx=0;exitDy=0;" edge="1" parent="1" source="NwhCCyq9oSYM_DOy5on5-155" target="NwhCCyq9oSYM_DOy5on5-155">
          <mxGeometry relative="1" as="geometry" />
        </mxCell>
      </root>
    </mxGraphModel>
  </diagram>
</mxfile>
